PathFileType	4	(X/Y/Z)	TVC_26_BWA4_walk_RCNL2025.trc
DataRate	CameraRate	NumFrames	NumMarkers	Units	OrigDataRate	OrigDataStartFrame	OrigNumFrames
100	100	7	27	mm	100	104	415
Frame#	Time	R_Shoulder			L_Shoulder			C7			J_Notch			R_Elbow			L_Elbow			R_Wrist			L_Wrist			R_Asis			L_Asis			R_Psis			L_Psis			Sacral			Thoracic			Sternum			R_Thigh_Lateral			R_Knee_Lateral			R_Shank_Lateral			R_Ankle_Lateral			R_Heel			R_Toe			L_Thigh_Lateral			L_Knee_Lateral			L_Shank_Lateral			L_Ankle_Lateral			L_Heel			L_Toe		
		X1	Y1	Z1	X2	Y2	Z2	X3	Y3	Z3	X4	Y4	Z4	X5	Y5	Z5	X6	Y6	Z6	X7	Y7	Z7	X8	Y8	Z8	X9	Y9	Z9	X10	Y10	Z10	X11	Y11	Z11	X12	Y12	Z12	X13	Y13	Z13	X14	Y14	Z14	X15	Y15	Z15	X16	Y16	Z16	X17	Y17	Z17	X18	Y18	Z18	X19	Y19	Z19	X20	Y20	Z20	X21	Y21	Z21	X22	Y22	Z22	X23	Y23	Z23	X24	Y24	Z24	X25	Y25	Z25	X26	Y26	Z26	X27	Y27	Z27
104	1.03000000	-207.971527	1349.135986	-42.564819	-251.988083	1364.007568	-360.129059	-302.244019	1392.104126	-183.946793	-154.077255	1300.380859	-204.331711	-104.956596	1012.851624	35.439819	-315.184448	1040.673218	-466.872955	40.728135	855.371948	18.897558	-168.568672	867.825745	-447.980515	-142.259125	941.917175	-42.735897	-149.698959	951.168518	-341.814758	-351.240631	942.333618	-120.831718	-349.601044	939.183044	-265.876190	-350.420837	940.758331	-193.353954	-358.183228	1113.383545	-193.383408	-100.826500	1062.075928	-218.366592	-226.470215	554.532227	-22.006695	-250.331375	432.822968	-89.243622	-330.748566	264.370361	-47.659435	-410.458099	78.194908	-115.439278	-462.077240	71.685860	-161.356247	-280.828186	39.249245	-143.159470	-62.990875	602.048706	-400.901764	-54.888786	482.410034	-337.113007	-18.995588	281.022827	-387.988983	20.067387	80.685638	-322.167999	-18.149628	49.325821	-266.865143	157.727234	85.445854	-320.707520
105	1.04000000	-202.753510	1348.073120	-44.201286	-246.493469	1363.151855	-361.903748	-296.874542	1391.045044	-185.701950	-148.466949	1299.720703	-206.020599	-100.127464	1011.605713	33.789520	-309.376587	1039.718628	-468.688660	44.864098	853.386841	17.884921	-162.827469	866.710510	-450.215942	-135.698944	941.380127	-44.072063	-143.235886	950.002808	-343.838531	-344.681519	941.041382	-122.726120	-342.672852	937.809021	-267.791199	-343.677185	939.425201	-195.258659	-351.961365	1112.113892	-195.506729	-94.469765	1061.483887	-220.084625	-220.761414	553.999634	-22.793413	-245.244659	432.199402	-89.852669	-327.998810	264.759674	-48.144054	-409.916321	79.471344	-115.568199	-461.481781	73.527039	-161.552765	-280.738586	39.254284	-143.130844	-56.235714	599.662109	-401.612549	-48.475895	480.553375	-337.176147	-14.568265	278.199432	-386.604431	21.655367	78.076218	-320.196289	-16.708187	47.188152	-265.110504	159.219193	80.739822	-318.444458
106	1.05000000	-197.442429	1347.109497	-45.946098	-240.984253	1362.355469	-363.772797	-291.456573	1390.067871	-187.545074	-142.800323	1299.153564	-207.816620	-95.446457	1010.428101	32.183472	-303.496246	1038.792358	-470.542603	48.727997	851.363251	17.028429	-156.981117	865.651947	-452.514999	-128.961899	940.922119	-45.541763	-136.692184	948.880798	-345.885193	-338.008087	939.861328	-124.620132	-335.663452	936.538635	-269.730713	-336.835770	938.199982	-197.175423	-345.663300	1110.921509	-197.667221	-88.017998	1061.010742	-221.892029	-214.827179	553.454468	-23.601847	-240.058014	431.663269	-90.478065	-325.100220	265.272766	-48.599545	-409.289520	80.922684	-115.663971	-460.820068	75.555374	-161.702087	-280.611176	39.241096	-143.100891	-49.996464	597.260193	-402.390900	-42.243462	478.817261	-337.319061	-10.537513	275.502228	-385.340179	23.106581	75.612732	-318.501190	-15.456330	45.458942	-263.697510	160.603851	75.879906	-316.337646
107	1.06000000	-192.030640	1346.261597	-47.796520	-235.459244	1361.631104	-365.732635	-285.985962	1389.186523	-189.471344	-137.075150	1298.690063	-209.719116	-90.911674	1009.333618	30.621349	-297.548615	1037.909180	-472.427490	52.318453	849.319366	16.324687	-151.043457	864.661316	-454.870148	-122.044891	940.559998	-47.162197	-130.083694	947.831116	-347.931946	-331.219452	938.814087	-126.508217	-328.583984	935.393677	-271.688171	-329.901718	937.103882	-199.098194	-339.291138	1109.821777	-199.855179	-81.474602	1060.673584	-223.796036	-208.626831	552.889465	-24.478285	-234.775803	431.237579	-91.131668	-322.036377	265.933960	-49.023781	-408.560852	82.564682	-115.724442	-460.077942	77.787651	-161.800385	-280.433594	39.212658	-143.073166	-44.337318	594.956238	-403.265869	-36.120380	477.320557	-337.568878	-6.742077	273.095612	-384.289642	24.572058	73.384468	-317.133636	-14.221322	44.302723	-262.682373	162.049606	71.009438	-314.431183
108	1.07000000	-186.511658	1345.543579	-49.749157	-229.917419	1360.991089	-367.778809	-280.459534	1388.413330	-191.475220	-131.290176	1298.339233	-211.726379	-86.520599	1008.336060	29.102251	-291.539093	1037.083252	-474.336639	55.635065	847.273163	15.769586	-145.029594	863.749481	-457.273697	-114.948570	940.309692	-48.947598	-123.423813	946.884277	-349.956207	-324.317017	937.917664	-128.384308	-321.447937	934.393372	-273.655792	-322.882477	936.155518	-201.020050	-332.848083	1108.828735	-202.060852	-74.845757	1060.486694	-225.802628	-202.151413	552.324280	-25.461676	-229.398270	430.945007	-91.821487	-318.793854	266.767883	-49.416851	-407.711517	84.411385	-115.749962	-459.236969	80.240807	-161.848663	-280.193878	39.172081	-143.052292	-39.253223	592.874817	-404.266357	-30.001438	476.171661	-337.953583	-2.933814	271.145569	-383.537903	26.155430	71.456131	-316.123016	-12.876962	43.834229	-262.092163	163.668610	66.267776	-312.751099
109	1.08000000	-180.880600	1344.967773	-51.800083	-224.357910	1360.446045	-369.906189	-274.875275	1387.758789	-193.550507	-125.445190	1298.108032	-213.835754	-82.270042	1007.447937	27.624744	-285.473206	1036.328003	-476.264130	58.678579	845.242126	15.358379	-138.955246	862.926453	-459.717819	-107.677597	940.185120	-50.908440	-116.721848	946.071106	-351.937531	-317.304504	937.186829	-130.242096	-314.270721	933.553162	-275.625092	-315.787613	935.369995	-202.933594	-326.338440	1107.954468	-204.274658	-68.140282	1060.460815	-227.916153	-195.434097	551.808716	-26.569971	-223.918472	430.804840	-92.549454	-315.362305	267.796600	-49.781166	-406.720642	86.474617	-115.743286	-458.274017	82.931404	-161.853012	-279.881317	39.121723	-143.044083	-34.648800	591.139587	-405.415619	-23.757889	475.451202	-338.495728	1.195034	269.777344	-383.144958	27.902868	69.862717	-315.472626	-11.361552	44.090866	-261.915588	165.503464	61.781925	-311.304504
110	1.09000000	-175.134399	1344.543335	-53.944912	-218.780151	1360.004761	-372.108948	-269.232361	1387.230835	-195.690582	-119.541138	1298.000610	-216.043533	-78.156067	1006.679871	26.186932	-279.356567	1035.655518	-478.204987	61.451105	843.242737	15.085750	-132.835861	862.201447	-462.194672	-100.240891	940.197144	-53.050797	-109.982132	945.420471	-353.860199	-310.187866	936.631897	-132.075531	-307.068909	932.883911	-277.587402	-308.628387	934.757904	-204.831467	-319.767365	1107.208130	-206.487595	-61.369339	1060.601562	-230.138931	-188.548309	551.417908	-27.792120	-218.319183	430.829620	-93.309708	-311.735260	269.036438	-50.121815	-405.565369	88.763512	-115.709335	-457.161041	85.875084	-161.824005	-279.487671	39.062244	-143.055374	-30.327684	589.856506	-406.721924	-17.255667	475.195801	-339.206696	5.957184	269.029053	-383.127869	29.801882	68.609520	-315.158295	-9.684624	45.016426	-262.099304	167.527191	57.658020	-310.082184
